HIERARCHY
ROOT pelvis
{
  OFFSET 0 100 0
  CHANNELS 6 Xposition Yposition Zposition Zrotation Xrotation Yrotation
  JOINT pelvis_right_femur
  {
    OFFSET -10.78128 -3.44521 -0.5502486
    CHANNELS 3 Zrotation Xrotation Yrotation
    JOINT right_femur_tibia
    {
      OFFSET -0.8047443 -44.0398 -0.1307829
      CHANNELS 3 Zrotation Xrotation Yrotation
      JOINT right_tibia_foot
      {
        OFFSET 3.006224 -47.83518 -5
        CHANNELS 3 Zrotation Xrotation Yrotation
        End Site
        {
          OFFSET 0 -5 15
        }
      }
    }
  }
  JOINT pelvis_left_femur
  {
    OFFSET 10.78128 -3.44521 -0.5502486
    CHANNELS 3 Zrotation Xrotation Yrotation
    JOINT left_femur_tibia
    {
      OFFSET 0.8047443 -44.0398 -0.1307829
      CHANNELS 3 Zrotation Xrotation Yrotation
      JOINT left_tibia_foot
      {
        OFFSET -4.370144 -48.10324 -4.275266
        CHANNELS 3 Zrotation Xrotation Yrotation
        End Site
        {
          OFFSET 0 -5 15
        }
      }
    }
  }
  JOINT pelvis_spine1
  {
    OFFSET 0 6.468898 -3.129235
    CHANNELS 3 Zrotation Xrotation Yrotation
    JOINT spine1
    {
      OFFSET 0 23.15396 4.99043
      CHANNELS 3 Zrotation Xrotation Yrotation
      JOINT spine2
      {
        OFFSET 0 20.79997 -5.064912
        CHANNELS 3 Zrotation Xrotation Yrotation
        JOINT neck
        {
          OFFSET 0 14.38658 9.616178
          CHANNELS 3 Zrotation Xrotation Yrotation
          End Site
          {
            OFFSET 0 20 0
          }
        }
      }
      JOINT right_manubrium
      {
        OFFSET -5.722621 16.35077 3.967754
        CHANNELS 3 Zrotation Xrotation Yrotation
        JOINT right_clavicle
        {
          OFFSET -13.16364 1.694482 -4.693211
          CHANNELS 3 Zrotation Xrotation Yrotation
          JOINT right_humerus
          {
            OFFSET -28.5034 -0.3100689 -2.792744
            CHANNELS 3 Zrotation Xrotation Yrotation
            JOINT right_radius
            {
              OFFSET -25.15693 0.02248979 -1.271978
              CHANNELS 3 Zrotation Xrotation Yrotation
              End Site
              {
                OFFSET -15 0 0
              }
            }
          }
        }
      }
      JOINT left_manubrium
      {
        OFFSET 5.722621 16.35077 3.967754
        CHANNELS 3 Zrotation Xrotation Yrotation
        JOINT left_clavicle
        {
          OFFSET 13.16364 1.694482 -4.693211
          CHANNELS 3 Zrotation Xrotation Yrotation
          JOINT left_humerus
          {
            OFFSET 29.39168 -1.063119 -2.237045
            CHANNELS 3 Zrotation Xrotation Yrotation
            JOINT left_radius
            {
              OFFSET 24.59957 -0.9528479 0.9047498
              CHANNELS 3 Zrotation Xrotation Yrotation
              End Site
              {
                OFFSET 15 -0 -0
              }
            }
          }
        }
      }
    }
  }
}
MOTION
Frames: 9
Frame Time: 0.0416666666667
-10.52856 107.4616 3127.599 0.667111 -4.595012 -5.096689 0.4977961 -25.59527 -1.667543 -0 10.80522 -0 -1.509472 3.205611 -5.451922 -5.31178 15.15852 -7.388117 -0 14.14855 -0 -3.488136 -20.144 12.7698 1.039239 -0.2352804 6.583551 2.105161 13.22797 -9.427915 0.6202345 23.10839 3.057644 1.988968 -23.03013 4.039001 -7.035038 -22.50746 11.29171 97.67945 21.79278 -23.39824 -0 0 11.95068 -18.174 5.892181 -2.636071 6.578188 -27.07311 -6.922204 -88.48898 11.80681 17.28734 0 0 -17.94289 17.76068 13.25133 -15.54406
-11.26866 106.2763 3134.273 0.803176 -3.889455 -4.724123 1.122129 -26.29455 -1.441709 -0 6.619626 -0 -0.979024 3.564559 -5.632897 -5.35761 16.8911 -6.998053 -0 18.14737 -0 -4.461574 -19.66306 12.09711 1.115262 -0.1947287 6.427688 2.160058 13.07905 -9.479312 0.7897211 23.25872 2.940977 1.731616 -23.41353 4.316063 -7.5222 -22.31922 11.2294 98.22199 21.636 -23.66815 -0 0 11.31101 -18.18132 5.784944 -2.81285 6.611282 -26.8535 -6.635127 -88.19667 12.05533 16.53238 0 0 -18.46588 17.86764 13.50966 -15.93421
-12.17197 105.4611 3141.309 0.627625 -3.571017 -4.466661 2.289242 -25.61396 -0.4853334 -0 5.675793 -0 -0.7616959 3.932824 -5.907564 -5.136135 17.75151 -6.62777 -0 24.04732 -0 -5.386933 -18.00141 11.834 1.175233 -0.1558446 6.377826 2.192396 13.00509 -9.475408 0.9054205 23.34859 2.813246 1.499059 -23.61081 4.489738 -7.809103 -22.3622 11.20167 98.46794 21.54909 -23.61226 -0 0 11.14469 -18.16912 5.782357 -2.799154 6.510529 -26.59934 -6.429011 -88.13917 12.22585 16.46916 0 0 -18.33422 17.83951 13.74476 -15.9852
-13.21352 105.2116 3148.575 0.1598559 -3.733438 -4.413122 3.811334 -23.52911 0.9841133 -0 7.325216 -0 -0.9319143 3.773897 -6.251725 -4.633294 17.36851 -6.32009 -0 31.58023 -0 -6.236604 -15.38679 12.00172 1.218563 -0.1014022 6.443306 2.21224 12.99815 -9.426679 0.9683072 23.38783 2.655153 1.265231 -23.64225 4.559385 -7.921631 -22.65563 11.20039 98.42563 21.54552 -23.21438 -0 0 11.47481 -18.11988 5.875392 -2.634377 6.276698 -26.29732 -6.278774 -88.33116 12.34092 17.12254 0 0 -17.47747 17.6934 13.95859 -15.73691
-14.33495 105.5997 3155.867 -0.4315579 -4.348243 -4.653228 5.262223 -20.12102 2.505953 -0 10.2366 -0 -1.468992 2.751086 -6.531277 -3.979252 15.36583 -6.116227 -0 40.03602 -0 -6.920345 -12.36255 12.57484 1.244245 -0.01859223 6.62114 2.229168 13.03382 -9.3402 0.983642 23.38679 2.454715 1.006453 -23.53611 4.537632 -7.892571 -23.19751 11.21737 98.11225 21.63473 -22.47228 -0 0 12.29467 -18.02117 6.040874 -2.349893 5.92203 -25.92729 -6.146752 -88.76774 12.41614 18.45971 0 0 -15.8847 17.44942 14.15164 -15.23881
-15.45923 106.532 3162.963 -0.8841039 -5.272898 -5.201386 6.17547 -15.6381 3.615091 -0 12.83123 -0 -2.214485 0.9034509 -6.569375 -3.380921 11.55737 -6.022745 -0 48.22321 -0 -7.332734 -9.634803 13.4516 1.249014 0.09463345 6.893213 2.248655 13.08066 -9.2189 0.9566402 23.35094 2.217427 0.7147705 -23.31767 4.445933 -7.74461 -23.95772 11.24866 97.55008 21.81626 -21.41117 -0 0 13.55897 -17.87183 6.246408 -1.955225 5.471211 -25.4795 -6.000938 -89.41476 12.45067 20.37885 0 0 -13.64512 17.1271 14.31596 -14.53591
-16.52415 107.7667 3169.695 -0.9957366 -6.292333 -5.960587 6.330149 -10.45384 4.129005 -0 13.99335 -0 -2.901338 -1.406613 -6.259408 -2.949023 6.126782 -5.99104 -0 54.61202 -0 -7.454806 -7.762832 14.48897 1.228233 0.2244332 7.22898 2.268604 13.11536 -9.06215 0.8891362 23.27584 1.970328 0.4086747 -22.99899 4.306024 -7.478141 -24.87856 11.29802 96.764 22.07304 -20.09209 -0 0 15.18425 -17.68614 6.462903 -1.432995 4.957878 -24.96965 -5.835683 -90.20841 12.4232 22.71954 0 0 -10.96411 16.73864 14.43143 -13.65367
-17.50501 108.9903 3176.002 -0.7815707 -7.177573 -6.782212 5.889865 -4.977392 4.188234 -0 13.55618 -0 -3.327286 -3.804573 -5.627895 -2.568333 -0.355767 -5.914277 -0 57.68077 -0 -7.373506 -6.903233 15.59084 1.179854 0.340031 7.595599 2.278081 13.13649 -8.867554 0.778107 23.1439 1.756258 0.1358678 -22.57256 4.128799 -7.069755 -25.88674 11.37744 95.77815 22.36984 -18.60694 -0 0 17.0672 -17.49103 6.679281 -0.7484054 4.417342 -24.44381 -5.684353 -91.06996 12.29332 25.30212 0 0 -8.13414 16.28175 14.46545 -12.58835
-18.40428 109.9095 3181.928 -0.4711582 -7.737295 -7.565757 5.269148 0.3832212 4.024666 -0 12.13787 -0 -3.504021 -6.185669 -4.792742 -1.973228 -7.106754 -5.650311 -0 56.43475 -0 -7.178444 -6.808986 16.72144 1.108375 0.4002294 7.969121 2.260447 13.16524 -8.633577 0.6176141 22.92769 1.620343 -0.03687808 -22.01636 3.908825 -6.485998 -26.90937 11.50237 94.6153 22.6612 -17.06209 -0 0 19.10758 -17.31621 6.907063 0.1271865 3.880956 -23.9682 -5.611443 -91.92796 12.01124 27.97048 0 0 -5.4681 15.74163 14.37812 -11.31603
